<svg xmlns="http://www.w3.org/2000/svg" width="720" height="400" viewBox="0 0 720 400">
<rect width="100%" height="100%" fill="white"/>
<text x="360.0" y="30" text-anchor="middle" font-family="Arial" font-size="20" font-weight="700">vLLM automatic tracing collects fewer kernel instances</text>
<text x="22" y="180.0" transform="rotate(-90 22 180.0)" text-anchor="middle" font-family="Arial" font-size="14">Automatic kernel instances</text>
<line x1="90" y1="55" x2="90" y2="305" stroke="#222" stroke-width="1.3"/>
<line x1="90" y1="305" x2="680" y2="305" stroke="#222" stroke-width="1.3"/>
<line x1="85" y1="305.0" x2="680" y2="305.0" stroke="#d8d8d8" stroke-width="0.8"/>
<text x="78" y="309.0" text-anchor="end" font-family="Arial" font-size="12">0</text>
<line x1="85" y1="255.0" x2="680" y2="255.0" stroke="#d8d8d8" stroke-width="0.8"/>
<text x="78" y="259.0" text-anchor="end" font-family="Arial" font-size="12">38574</text>
<line x1="85" y1="205.0" x2="680" y2="205.0" stroke="#d8d8d8" stroke-width="0.8"/>
<text x="78" y="209.0" text-anchor="end" font-family="Arial" font-size="12">77148</text>
<line x1="85" y1="155.0" x2="680" y2="155.0" stroke="#d8d8d8" stroke-width="0.8"/>
<text x="78" y="159.0" text-anchor="end" font-family="Arial" font-size="12">115722</text>
<line x1="85" y1="105.0" x2="680" y2="105.0" stroke="#d8d8d8" stroke-width="0.8"/>
<text x="78" y="109.0" text-anchor="end" font-family="Arial" font-size="12">154296</text>
<line x1="85" y1="55.0" x2="680" y2="55.0" stroke="#d8d8d8" stroke-width="0.8"/>
<text x="78" y="59.0" text-anchor="end" font-family="Arial" font-size="12">192870</text>
<rect x="330.0" y="178.8" width="110" height="126.2" fill="#2f6f73"/>
<text x="385.0" y="170.8" text-anchor="middle" font-family="Arial" font-size="13">97382.0</text>
<line x1="385.0" y1="178.7" x2="385.0" y2="178.8" stroke="#222" stroke-width="1.3"/>
<line x1="377.0" y1="178.7" x2="393.0" y2="178.7" stroke="#222" stroke-width="1.3"/>
<line x1="377.0" y1="178.8" x2="393.0" y2="178.8" stroke="#222" stroke-width="1.3"/>
<text x="385.0" y="335" text-anchor="middle" font-family="Arial" font-size="12">queue pressure</text>
</svg>
