<svg xmlns="http://www.w3.org/2000/svg" width="820" height="430" viewBox="0 0 820 430">
<rect width="100%" height="100%" fill="white"/>
<text x="410.0" y="30" text-anchor="middle" font-family="Arial" font-size="20" font-weight="700">Automatic tracing reduces profiler duration</text>
<text x="22" y="190.0" transform="rotate(-90 22 190.0)" text-anchor="middle" font-family="Arial" font-size="14">Profiler time saved (%)</text>
<line x1="90" y1="55" x2="90" y2="325" stroke="#222" stroke-width="1.3"/>
<line x1="90" y1="325" x2="780" y2="325" stroke="#222" stroke-width="1.3"/>
<line x1="85" y1="325.0" x2="780" y2="325.0" stroke="#d8d8d8" stroke-width="0.8"/>
<text x="78" y="329.0" text-anchor="end" font-family="Arial" font-size="12">0</text>
<line x1="85" y1="271.0" x2="780" y2="271.0" stroke="#d8d8d8" stroke-width="0.8"/>
<text x="78" y="275.0" text-anchor="end" font-family="Arial" font-size="12">20</text>
<line x1="85" y1="217.0" x2="780" y2="217.0" stroke="#d8d8d8" stroke-width="0.8"/>
<text x="78" y="221.0" text-anchor="end" font-family="Arial" font-size="12">40</text>
<line x1="85" y1="163.0" x2="780" y2="163.0" stroke="#d8d8d8" stroke-width="0.8"/>
<text x="78" y="167.0" text-anchor="end" font-family="Arial" font-size="12">60</text>
<line x1="85" y1="109.0" x2="780" y2="109.0" stroke="#d8d8d8" stroke-width="0.8"/>
<text x="78" y="113.0" text-anchor="end" font-family="Arial" font-size="12">80</text>
<line x1="85" y1="55.0" x2="780" y2="55.0" stroke="#d8d8d8" stroke-width="0.8"/>
<text x="78" y="59.0" text-anchor="end" font-family="Arial" font-size="12">100</text>
<line x1="90" y1="257.5" x2="780" y2="257.5" stroke="#8b1e3f" stroke-width="1.5" stroke-dasharray="5 4"/>
<text x="776" y="250.5" text-anchor="end" font-family="Arial" font-size="12" fill="#8b1e3f">threshold 25%</text>
<rect x="161.0" y="239.8" width="88" height="85.2" fill="#2f6f73"/>
<text x="205.0" y="231.8" text-anchor="middle" font-family="Arial" font-size="13">31.6</text>
<line x1="205.0" y1="233.5" x2="205.0" y2="246.1" stroke="#222" stroke-width="1.3"/>
<line x1="197.0" y1="233.5" x2="213.0" y2="233.5" stroke="#222" stroke-width="1.3"/>
<line x1="197.0" y1="246.1" x2="213.0" y2="246.1" stroke="#222" stroke-width="1.3"/>
<text x="205.0" y="353" text-anchor="middle" font-family="Arial" font-size="12">compute bound</text>
<rect x="391.0" y="201.2" width="88" height="123.8" fill="#2f6f73"/>
<text x="435.0" y="193.2" text-anchor="middle" font-family="Arial" font-size="13">45.8</text>
<line x1="435.0" y1="194.3" x2="435.0" y2="208.1" stroke="#222" stroke-width="1.3"/>
<line x1="427.0" y1="194.3" x2="443.0" y2="194.3" stroke="#222" stroke-width="1.3"/>
<line x1="427.0" y1="208.1" x2="443.0" y2="208.1" stroke="#222" stroke-width="1.3"/>
<text x="435.0" y="353" text-anchor="middle" font-family="Arial" font-size="12">launch overhead</text>
<text x="435.0" y="369" text-anchor="middle" font-family="Arial" font-size="12">small kernel</text>
<rect x="621.0" y="229.3" width="88" height="95.7" fill="#2f6f73"/>
<text x="665.0" y="221.3" text-anchor="middle" font-family="Arial" font-size="13">35.4</text>
<line x1="665.0" y1="219.6" x2="665.0" y2="239.0" stroke="#222" stroke-width="1.3"/>
<line x1="657.0" y1="219.6" x2="673.0" y2="219.6" stroke="#222" stroke-width="1.3"/>
<line x1="657.0" y1="239.0" x2="673.0" y2="239.0" stroke="#222" stroke-width="1.3"/>
<text x="665.0" y="353" text-anchor="middle" font-family="Arial" font-size="12">mixed</text>
</svg>
